<svg width="64" height="64" viewBox="0 0 64 64" fill="none" xmlns="http://www.w3.org/2000/svg">
<g clip-path="url(#clip0_6_6)">
<circle cx="32" cy="32" r="32" fill="url(#paint0_radial_6_6)"/>
<path d="M16.1538 43.9277C13.9012 43.9277 11.9622 43.4715 10.3369 42.559C8.72103 41.6371 7.4759 40.3349 6.60145 38.6525C5.72701 36.9607 5.28978 34.9599 5.28978 32.6502C5.28978 30.3976 5.72701 28.4206 6.60145 26.7192C7.4759 25.0178 8.70677 23.6919 10.2941 22.7414C11.8909 21.791 13.7633 21.3157 15.9114 21.3157C17.3562 21.3157 18.7011 21.5486 19.9462 22.0143C21.2009 22.4706 22.2939 23.1597 23.2254 24.0816C24.1664 25.0036 24.8983 26.1632 25.421 27.5604C25.9438 28.9481 26.2052 30.5734 26.2052 32.4364V34.1045H7.71352V30.3406H20.488C20.488 29.4661 20.2979 28.6915 19.9177 28.0166C19.5375 27.3418 19.01 26.8143 18.3352 26.4341C17.6698 26.0444 16.8952 25.8495 16.0112 25.8495C15.0893 25.8495 14.2719 26.0634 13.559 26.4911C12.8556 26.9093 12.3044 27.4748 11.9051 28.1877C11.5059 28.8911 11.3016 29.6752 11.2921 30.5402V34.1187C11.2921 35.2023 11.4917 36.1385 11.8909 36.9274C12.2996 37.7163 12.8746 38.3246 13.616 38.7523C14.3574 39.1801 15.2366 39.3939 16.2536 39.3939C16.9285 39.3939 17.5463 39.2989 18.1071 39.1088C18.6678 38.9187 19.1478 38.6335 19.547 38.2533C19.9462 37.8731 20.2504 37.4074 20.4595 36.8561L26.0769 37.2268C25.7917 38.5765 25.2072 39.7551 24.3232 40.7626C23.4488 41.7606 22.3177 42.54 20.93 43.1008C19.5518 43.6521 17.9597 43.9277 16.1538 43.9277ZM40.0632 43.9277C37.8486 43.9277 35.9334 43.4572 34.3175 42.5162C32.7112 41.5658 31.4709 40.2446 30.5964 38.5527C29.722 36.8514 29.2847 34.8791 29.2847 32.636C29.2847 30.3738 29.722 28.3968 30.5964 26.705C31.4709 25.0036 32.7112 23.6824 34.3175 22.7414C35.9334 21.791 37.8486 21.3157 40.0632 21.3157C42.2778 21.3157 44.1883 21.791 45.7946 22.7414C47.4105 23.6824 48.6556 25.0036 49.53 26.705C50.4045 28.3968 50.8417 30.3738 50.8417 32.636C50.8417 34.8791 50.4045 36.8514 49.53 38.5527C48.6556 40.2446 47.4105 41.5658 45.7946 42.5162C44.1883 43.4572 42.2778 43.9277 40.0632 43.9277ZM40.0917 39.2228C41.0992 39.2228 41.9404 38.9377 42.6153 38.3674C43.2901 37.7876 43.7986 36.9987 44.1408 36.0007C44.4925 35.0027 44.6683 33.8668 44.6683 32.5932C44.6683 31.3196 44.4925 30.1837 44.1408 29.1857C43.7986 28.1877 43.2901 27.3988 42.6153 26.819C41.9404 26.2392 41.0992 25.9493 40.0917 25.9493C39.0747 25.9493 38.2193 26.2392 37.5254 26.819C36.8411 27.3988 36.3231 28.1877 35.9714 29.1857C35.6292 30.1837 35.4581 31.3196 35.4581 32.5932C35.4581 33.8668 35.6292 35.0027 35.9714 36.0007C36.3231 36.9987 36.8411 37.7876 37.5254 38.3674C38.2193 38.9377 39.0747 39.2228 40.0917 39.2228Z" fill="#394150"/>
<path d="M55.9321 43.8707C54.9911 43.8707 54.1832 43.538 53.5084 42.8727C52.843 42.1978 52.5104 41.3899 52.5104 40.4489C52.5104 39.5175 52.843 38.7191 53.5084 38.0537C54.1832 37.3884 54.9911 37.0557 55.9321 37.0557C56.8446 37.0557 57.643 37.3884 58.3273 38.0537C59.0117 38.7191 59.3539 39.5175 59.3539 40.4489C59.3539 41.0763 59.1923 41.6513 58.8691 42.1741C58.5554 42.6873 58.142 43.1008 57.6287 43.4145C57.1155 43.7186 56.5499 43.8707 55.9321 43.8707Z" fill="#6EA2F6"/>
</g>
<defs>
<radialGradient id="paint0_radial_6_6" cx="0" cy="0" r="1" gradientUnits="userSpaceOnUse" gradientTransform="translate(32 32) rotate(90) scale(32)">
<stop offset="0.665" stop-color="#D9D9D9"/>
<stop offset="1" stop-color="#AAAAAA"/>
</radialGradient>
<clipPath id="clip0_6_6">
<rect width="64" height="64" fill="white"/>
</clipPath>
</defs>
</svg>
